<svg width="1081" height="226" viewBox="0 0 1081 226" fill="none" xmlns="http://www.w3.org/2000/svg">
<path d="M133.788 167.925H73.207L48.5377 222.572H0.447998L102.873 12.1017H160.643L185.312 222.572H137.847L133.788 167.925ZM86.3224 133.575H131.914L127.542 88.2958C126.918 76.7417 125.669 59.8791 124.732 47.076H124.107C118.799 59.8791 112.865 76.1172 107.245 88.2958L86.3224 133.575Z" fill="#003B36"/>
<path d="M240.286 222.572H195.319L237.788 0.859985H282.755L240.286 222.572Z" fill="#003B36"/>
<path d="M361.962 66.1245C402.87 66.1245 426.602 94.2289 426.602 129.203C426.602 185.1 388.193 226.007 335.419 226.007C296.698 226.007 270.779 200.713 270.779 162.616C270.779 109.842 307.627 66.1245 361.962 66.1245ZM356.029 100.474C330.111 100.474 317.308 138.259 317.308 161.992C317.308 179.791 326.051 191.657 341.977 191.657C366.022 191.657 380.074 155.434 380.074 129.515C380.074 115.463 373.828 100.474 356.029 100.474Z" fill="#003B36"/>
<path d="M423.353 211.018L438.342 173.858C450.832 181.352 468.632 187.286 487.993 187.286C505.48 187.286 521.406 179.167 521.406 162.928C521.406 150.75 512.35 143.255 492.989 132.95C470.818 121.084 449.583 104.534 449.583 77.3663C449.583 34.5852 486.431 8.97903 532.335 8.97903C557.941 8.97903 572.93 14.5999 581.986 19.284L567.934 56.7564C561.064 53.0092 546.075 47.3883 528.9 47.7006C507.666 47.7006 496.736 58.0055 496.736 69.5595C496.736 81.7381 509.539 89.5448 527.339 99.5375C552.945 112.653 569.183 129.828 569.183 155.122C569.183 201.962 530.461 226.007 483.621 226.007C454.267 225.695 433.345 218.2 423.353 211.018Z" fill="#003B36"/>
<path d="M614.077 40.8306L660.293 28.3398L652.486 69.5595H685.274L678.405 103.909H645.928L635.623 155.746C634.374 161.679 633.125 169.798 633.125 175.107C633.125 182.601 636.248 187.91 646.241 187.91C649.988 187.91 654.672 187.91 658.419 187.286L653.423 222.572C647.49 224.758 636.248 226.007 626.88 226.007C599.712 226.007 586.909 212.267 586.909 192.906C586.909 184.787 587.846 176.356 590.344 164.49L601.898 103.909H582.537L588.783 69.5595H608.456L614.077 40.8306Z" fill="#003B36"/>
<path d="M765.145 66.1245C806.052 66.1245 829.785 94.2289 829.785 129.203C829.785 185.1 791.376 226.007 738.602 226.007C699.88 226.007 673.962 200.713 673.962 162.616C673.962 109.842 710.81 66.1245 765.145 66.1245ZM759.212 100.474C733.293 100.474 720.49 138.259 720.49 161.992C720.49 179.791 729.234 191.657 745.16 191.657C769.205 191.657 783.257 155.434 783.257 129.515C783.257 115.463 777.011 100.474 759.212 100.474Z" fill="#003B36"/>
<path d="M875.562 222.572H830.595L847.77 131.701C852.142 108.593 854.015 82.9872 855.577 69.8718H894.611C893.674 80.1767 893.049 90.4817 891.8 101.099H892.737C903.666 80.8013 920.529 66.4368 941.451 66.4368C944.261 66.4368 947.072 66.4368 949.882 66.7491L941.139 110.467C938.953 110.155 936.455 110.155 933.957 110.155C905.228 110.155 891.8 135.761 886.179 165.739L875.562 222.572Z" fill="#003B36"/>
<path d="M1058.28 181.352L1061.4 213.829C1043.6 222.884 1021.43 226.007 1004.25 226.007C960.848 226.007 938.365 201.338 938.365 161.367C938.365 114.839 972.09 66.4368 1027.36 66.4368C1058.28 66.4368 1080.45 83.924 1080.45 112.341C1080.45 151.062 1042.66 165.114 981.146 163.553C981.458 167.925 983.02 174.795 986.142 179.166C992.075 186.973 1002.38 191.033 1015.5 191.033C1032.05 191.033 1046.1 187.286 1058.28 181.352ZM1038.29 112.028C1038.29 104.534 1032.05 99.2252 1021.74 99.2252C1000.82 99.2252 988.64 116.712 985.518 130.765C1020.8 131.077 1038.29 126.393 1038.29 112.028Z" fill="#003B36"/>
</svg>
